<svg width="508" height="120" viewBox="0 0 508 120" fill="none" xmlns="http://www.w3.org/2000/svg">
<g clip-path="url(#clip0_4852_30250)">
<rect width="508" height="120" fill="white"/>
<g clip-path="url(#clip1_4852_30250)">
<rect width="508" height="120" fill="#F7F7F7"/>
<path d="M363.619 69.19H521.53C522.463 69.193 523.382 68.9717 524.211 68.545C525.039 68.1183 525.752 67.4987 526.288 66.739C526.824 65.9792 527.168 65.1018 527.291 64.1812C527.414 63.2605 527.312 62.324 526.994 61.4511L452.488 -142.481C452.148 -143.371 451.591 -144.162 450.869 -144.786C450.146 -145.409 449.28 -145.845 448.347 -146.054C447.415 -146.263 446.445 -146.238 445.524 -145.983C444.603 -145.728 443.759 -145.25 443.069 -144.592L329.05 -30.9C328.286 -30.1433 327.749 -29.1894 327.499 -28.1454C327.25 -27.1014 327.298 -26.0087 327.637 -24.9903L358.155 65.2971C358.534 66.4387 359.268 67.4308 360.25 68.1305C361.231 68.8302 362.411 69.2012 363.619 69.19Z" fill="#EDEDED"/>
<path d="M144.691 50.81H-13.2209C-14.1534 50.807 -15.0728 51.0283 -15.9011 51.455C-16.7294 51.8817 -17.4422 52.5013 -17.9785 53.261C-18.5148 54.0208 -18.8588 54.8982 -18.9817 55.8188C-19.1046 56.7395 -19.0026 57.676 -18.6842 58.5489L55.8214 262.481C56.162 263.371 56.7183 264.162 57.4408 264.786C58.1634 265.409 59.0298 265.845 59.9624 266.054C60.895 266.263 61.865 266.238 62.786 265.983C63.707 265.728 64.5501 265.25 65.2405 264.592L179.259 150.9C180.024 150.143 180.561 149.189 180.81 148.145C181.06 147.101 181.012 146.009 180.672 144.99L150.154 54.7029C149.775 53.5613 149.042 52.5692 148.06 51.8695C147.078 51.1698 145.898 50.7988 144.691 50.81Z" fill="#EDEDED"/>
</g>
</g>
<defs>
<clipPath id="clip0_4852_30250">
<rect width="508" height="120" fill="white"/>
</clipPath>
<clipPath id="clip1_4852_30250">
<rect width="508" height="120" fill="white"/>
</clipPath>
</defs>
</svg>
