<svg width="76" height="79" viewBox="0 0 76 79" fill="none" xmlns="http://www.w3.org/2000/svg">
<g filter="url(#filter0_dd_6729_203129)">
<g clip-path="url(#clip0_6729_203129)">
<path d="M2 18C2 9.16344 9.16344 2 18 2H58C66.8366 2 74 9.16344 74 18V58C74 66.8366 66.8366 74 58 74H18C9.16344 74 2 66.8366 2 58V18Z" fill="#F7F7F7"/>
<path d="M8.41407 108.695H81.7304C82.1633 108.697 82.5902 108.594 82.9747 108.396C83.3593 108.198 83.6902 107.91 83.9392 107.557C84.1882 107.204 84.348 106.797 84.405 106.37C84.462 105.942 84.4147 105.507 84.2669 105.102L49.675 10.4193C49.5168 10.0063 49.2586 9.63871 48.9231 9.3493C48.5876 9.0599 48.1854 8.85766 47.7524 8.76064C47.3194 8.66361 46.869 8.67481 46.4414 8.79324C46.0138 8.91166 45.6224 9.13364 45.3018 9.43935L-7.63554 62.2248C-7.99033 62.5761 -8.23968 63.0191 -8.35556 63.5038C-8.47144 63.9885 -8.44924 64.4958 -8.2915 64.9686L5.87756 106.888C6.05357 107.418 6.39407 107.878 6.84994 108.203C7.3058 108.528 7.85355 108.7 8.41407 108.695Z" fill="white" stroke="#EDEDED" stroke-width="3"/>
</g>
</g>
<defs>
<filter id="filter0_dd_6729_203129" x="0" y="0" width="76" height="79" filterUnits="userSpaceOnUse" color-interpolation-filters="sRGB">
<feFlood flood-opacity="0" result="BackgroundImageFix"/>
<feColorMatrix in="SourceAlpha" type="matrix" values="0 0 0 0 0 0 0 0 0 0 0 0 0 0 0 0 0 0 127 0" result="hardAlpha"/>
<feMorphology radius="2" operator="dilate" in="SourceAlpha" result="effect1_dropShadow_6729_203129"/>
<feOffset/>
<feComposite in2="hardAlpha" operator="out"/>
<feColorMatrix type="matrix" values="0 0 0 0 0 0 0 0 0 0 0 0 0 0 0 0 0 0 0.05 0"/>
<feBlend mode="normal" in2="BackgroundImageFix" result="effect1_dropShadow_6729_203129"/>
<feColorMatrix in="SourceAlpha" type="matrix" values="0 0 0 0 0 0 0 0 0 0 0 0 0 0 0 0 0 0 127 0" result="hardAlpha"/>
<feOffset dy="3"/>
<feGaussianBlur stdDeviation="1"/>
<feComposite in2="hardAlpha" operator="out"/>
<feColorMatrix type="matrix" values="0 0 0 0 0.0230851 0 0 0 0 0.0610638 0 0 0 0 0.116915 0 0 0 0.08 0"/>
<feBlend mode="normal" in2="effect1_dropShadow_6729_203129" result="effect2_dropShadow_6729_203129"/>
<feBlend mode="normal" in="SourceGraphic" in2="effect2_dropShadow_6729_203129" result="shape"/>
</filter>
<clipPath id="clip0_6729_203129">
<path d="M2 18C2 9.16344 9.16344 2 18 2H58C66.8366 2 74 9.16344 74 18V58C74 66.8366 66.8366 74 58 74H18C9.16344 74 2 66.8366 2 58V18Z" fill="white"/>
</clipPath>
</defs>
</svg>
