<svg width="72" height="72" viewBox="0 0 72 72" fill="none" xmlns="http://www.w3.org/2000/svg">
<g clip-path="url(#clip0_4803_6122)">
<path d="M0 16C0 7.16344 7.16344 0 16 0H56C64.8366 0 72 7.16344 72 16V56C72 64.8366 64.8366 72 56 72H16C7.16344 72 0 64.8366 0 56V16Z" fill="#2F7BEB"/>
<path d="M28.9929 38.6093H-44.3234C-44.7563 38.6079 -45.1832 38.7107 -45.5677 38.9088C-45.9523 39.1069 -46.2832 39.3946 -46.5323 39.7473C-46.7813 40.1 -46.941 40.5074 -46.998 40.9348C-47.0551 41.3623 -47.0077 41.7971 -46.8599 42.2024L-12.268 136.885C-12.1099 137.298 -11.8516 137.666 -11.5161 137.955C-11.1807 138.245 -10.7784 138.447 -10.3454 138.544C-9.91242 138.641 -9.46205 138.63 -9.03445 138.511C-8.60686 138.393 -8.21538 138.171 -7.89485 137.865L45.0425 85.0797C45.3973 84.7283 45.6467 84.2854 45.7625 83.8007C45.8784 83.316 45.8562 82.8087 45.6985 82.3359L31.5294 40.4167C31.3534 39.8867 31.0129 39.4261 30.557 39.1012C30.1012 38.7764 29.5534 38.6041 28.9929 38.6093Z" fill="#FEFAEB" stroke="#FF803F" stroke-width="3"/>
<path d="M49.8215 27.9999H123.138C123.571 28.0013 123.998 27.8985 124.382 27.7004C124.767 27.5023 125.098 27.2146 125.347 26.8619C125.596 26.5092 125.755 26.1018 125.812 25.6743C125.87 25.2469 125.822 24.8121 125.674 24.4068L91.0825 -70.276C90.9243 -70.689 90.666 -71.0566 90.3306 -71.346C89.9951 -71.6354 89.5929 -71.8376 89.1599 -71.9347C88.7269 -72.0317 88.2765 -72.0205 87.8489 -71.9021C87.4213 -71.7836 87.0298 -71.5617 86.7093 -71.256L33.7719 -18.4705C33.4171 -18.1192 33.1678 -17.6763 33.0519 -17.1915C32.936 -16.7068 32.9582 -16.1995 33.116 -15.7267L47.285 26.1925C47.461 26.7225 47.8015 27.1831 48.2574 27.508C48.7133 27.8328 49.261 28.0051 49.8215 27.9999Z" fill="#FEFAEB" stroke="#FF803F" stroke-width="3"/>
</g>
<defs>
<clipPath id="clip0_4803_6122">
<path d="M0 16C0 7.16344 7.16344 0 16 0H56C64.8366 0 72 7.16344 72 16V56C72 64.8366 64.8366 72 56 72H16C7.16344 72 0 64.8366 0 56V16Z" fill="white"/>
</clipPath>
</defs>
</svg>
