<svg width="48" height="100" viewBox="0 0 48 100" fill="none" xmlns="http://www.w3.org/2000/svg">
<g clip-path="url(#clip0_6581_2106)">
<path d="M0 8C0 3.58172 3.58172 0 8 0H40C44.4183 0 48 3.58172 48 8V92C48 96.4183 44.4183 100 40 100H8C3.58172 100 0 96.4183 0 92V8Z" fill="white"/>
<path d="M69.675 60.1417H-18.3045C-18.8241 60.1401 -19.3363 60.2634 -19.7978 60.5011C-20.2592 60.7389 -20.6564 61.0841 -20.9552 61.5073C-21.254 61.9306 -21.4456 62.4195 -21.5141 62.9324C-21.5825 63.4453 -21.5257 63.9671 -21.3483 64.4534L20.1619 178.073C20.3517 178.568 20.6616 179.01 21.0642 179.357C21.4667 179.704 21.9494 179.947 22.469 180.063C22.9886 180.18 23.5291 180.166 24.0422 180.024C24.5553 179.882 25.0251 179.616 25.4097 179.249L88.9346 115.906C89.3603 115.485 89.6595 114.953 89.7986 114.371C89.9377 113.79 89.911 113.181 89.7217 112.614L72.7188 62.3106C72.5076 61.6746 72.099 61.1219 71.552 60.7321C71.0049 60.3423 70.3477 60.1355 69.675 60.1417Z" fill="#EDEDED"/>
<path d="M-24.6909 38.4071H63.2886C63.8082 38.4087 64.3204 38.2855 64.7819 38.0477C65.2433 37.81 65.6405 37.4648 65.9393 37.0415C66.2381 36.6182 66.4298 36.1293 66.4982 35.6164C66.5667 35.1035 66.5099 34.5817 66.3325 34.0954L24.8222 -79.524C24.6324 -80.0196 24.3225 -80.4607 23.9199 -80.808C23.5174 -81.1553 23.0347 -81.3979 22.5151 -81.5144C21.9955 -81.6308 21.455 -81.6174 20.9419 -81.4753C20.4288 -81.3332 19.959 -81.0668 19.5744 -80.6999L-43.9504 -17.3574C-44.3762 -16.9358 -44.6754 -16.4043 -44.8145 -15.8226C-44.9535 -15.241 -44.9269 -14.6322 -44.7376 -14.0648L-27.7347 36.2382C-27.5235 36.8742 -27.1149 37.427 -26.5679 37.8168C-26.0208 38.2066 -25.3635 38.4133 -24.6909 38.4071Z" fill="#EDEDED"/>
</g>
<defs>
<clipPath id="clip0_6581_2106">
<path d="M0 8C0 3.58172 3.58172 0 8 0H40C44.4183 0 48 3.58172 48 8V92C48 96.4183 44.4183 100 40 100H8C3.58172 100 0 96.4183 0 92V8Z" fill="white"/>
</clipPath>
</defs>
</svg>
