<svg width="210" height="100" viewBox="0 0 210 100" fill="none" xmlns="http://www.w3.org/2000/svg">
<g clip-path="url(#clip0_6581_12735)">
<path d="M0 8C0 3.58172 3.58172 0 8 0H202C206.418 0 210 3.58172 210 8V92C210 96.4183 206.418 100 202 100H8C3.58172 100 0 96.4183 0 92V8Z" fill="white"/>
<path d="M69.675 60.1417H-18.3045C-18.8241 60.1401 -19.3363 60.2634 -19.7977 60.5011C-20.2592 60.7389 -20.6563 61.0841 -20.9552 61.5073C-21.254 61.9306 -21.4456 62.4195 -21.5141 62.9324C-21.5825 63.4453 -21.5257 63.9671 -21.3483 64.4534L20.1619 178.073C20.3517 178.568 20.6617 179.01 21.0642 179.357C21.4667 179.704 21.9494 179.947 22.469 180.063C22.9886 180.18 23.5291 180.166 24.0422 180.024C24.5553 179.882 25.0251 179.616 25.4097 179.249L88.9346 115.906C89.3603 115.485 89.6595 114.953 89.7986 114.371C89.9377 113.79 89.911 113.181 89.7217 112.614L72.7188 62.3106C72.5076 61.6746 72.099 61.1219 71.552 60.7321C71.005 60.3423 70.3477 60.1355 69.675 60.1417Z" fill="#EDEDED"/>
<path d="M137.309 38.4071H225.289C225.808 38.4087 226.32 38.2855 226.782 38.0477C227.243 37.81 227.64 37.4648 227.939 37.0415C228.238 36.6182 228.43 36.1293 228.498 35.6164C228.567 35.1035 228.51 34.5817 228.332 34.0954L186.822 -79.524C186.632 -80.0196 186.322 -80.4607 185.92 -80.808C185.517 -81.1553 185.035 -81.3979 184.515 -81.5144C183.995 -81.6308 183.455 -81.6174 182.942 -81.4753C182.429 -81.3332 181.959 -81.0668 181.574 -80.6999L118.05 -17.3574C117.624 -16.9358 117.325 -16.4043 117.186 -15.8226C117.046 -15.241 117.073 -14.6322 117.262 -14.0648L134.265 36.2382C134.476 36.8742 134.885 37.427 135.432 37.8168C135.979 38.2066 136.636 38.4133 137.309 38.4071Z" fill="#EDEDED"/>
</g>
<defs>
<clipPath id="clip0_6581_12735">
<path d="M0 8C0 3.58172 3.58172 0 8 0H202C206.418 0 210 3.58172 210 8V92C210 96.4183 206.418 100 202 100H8C3.58172 100 0 96.4183 0 92V8Z" fill="white"/>
</clipPath>
</defs>
</svg>
