<svg width="17" height="17" viewBox="0 0 17 17" fill="none" xmlns="http://www.w3.org/2000/svg">
<path d="M8.53125 1.35547C10.4375 1.35615 12.2233 2.09329 13.5674 3.43164C14.9117 4.76991 15.65 6.54566 15.6494 8.43652C15.6481 12.3349 12.4569 15.5124 8.53223 15.5127H8.52832C7.3365 15.5123 6.16589 15.2151 5.12695 14.6514L4.95312 14.5576L4.76172 14.6074L1.56152 15.4414L2.41211 12.3506L2.46777 12.1484L2.36328 11.9668C1.74105 10.8946 1.4124 9.6778 1.41309 8.43066C1.41466 4.53245 4.60597 1.35573 8.53125 1.35547ZM8.53418 1.63477C4.76808 1.63487 1.701 4.68058 1.69922 8.43066C1.69843 9.71476 2.06066 10.967 2.74512 12.0498V12.0488L2.77734 12.0996L2.19629 14.2119L1.9668 15.0469L2.80469 14.8281L5 14.2549L5.05176 14.2861H5.05273C6.10237 14.9053 7.3045 15.233 8.5293 15.2334H8.53223C12.2955 15.2331 15.3617 12.1869 15.3633 8.43652C15.3641 6.62086 14.653 4.91064 13.3633 3.62695C12.0738 2.34322 10.3569 1.63555 8.53418 1.63477ZM5.83496 5.43262C5.95294 5.43262 6.06239 5.4344 6.15625 5.43848L6.16602 5.45801C6.24488 5.64604 6.37923 5.97154 6.50098 6.26562C6.59785 6.49962 6.69802 6.73812 6.74707 6.84766C6.70481 6.93261 6.69781 6.94775 6.66113 6.99023V6.99121C6.53381 7.13874 6.47124 7.22528 6.40234 7.29395C6.3685 7.32748 6.23458 7.45036 6.16699 7.63086C6.0814 7.85985 6.12366 8.09069 6.23926 8.28809C6.34392 8.46688 6.67432 9.00452 7.17383 9.50781L7.39844 9.7207C8.19038 10.4228 8.89711 10.6632 9.03809 10.7334C9.1661 10.7972 9.34775 10.8669 9.55664 10.8418C9.72862 10.8211 9.86074 10.744 9.95996 10.6572L10.0488 10.5693C10.1371 10.4691 10.4202 10.1348 10.5986 9.89844C10.5996 9.89885 10.6006 9.89997 10.6016 9.90039C10.6401 9.91731 10.6883 9.93905 10.7441 9.96484C10.8561 10.0166 10.9931 10.0819 11.1318 10.1484L11.8906 10.5176C11.8798 10.6346 11.8512 10.7947 11.7881 10.9707C11.7671 11.0292 11.6579 11.1649 11.4248 11.3135C11.2045 11.4539 10.9904 11.5313 10.9004 11.5449C10.6136 11.5874 10.2824 11.601 9.92578 11.4883H9.9248C9.65582 11.4034 9.31895 11.2921 8.88672 11.1064C7.1252 10.3496 5.95904 8.56829 5.83691 8.40625L5.69336 8.20312C5.62435 8.099 5.5403 7.96201 5.45898 7.80273C5.29289 7.47734 5.16017 7.10157 5.16016 6.74902C5.16016 6.0275 5.52173 5.69619 5.69434 5.50879C5.75789 5.43977 5.82147 5.43262 5.83496 5.43262Z" fill="#7A7A7A" stroke="#A9A79D"/>
</svg>
