<svg width="829" height="96" viewBox="0 0 829 96" fill="none" xmlns="http://www.w3.org/2000/svg">
<g clip-path="url(#clip0_5465_24148)">
<rect width="829" height="96" fill="white"/>
<g clip-path="url(#clip1_5465_24148)">
<rect width="829" height="96" fill="#F7F7F7"/>
<path d="M684.619 43.3845H842.53C843.463 43.3875 844.382 43.1662 845.211 42.7395C846.039 42.3127 846.752 41.6932 847.288 40.9334C847.824 40.1737 848.168 39.2962 848.291 38.3756C848.414 37.455 848.312 36.5185 847.994 35.6456L773.488 -168.287C773.148 -169.176 772.591 -169.968 771.869 -170.591C771.146 -171.215 770.28 -171.65 769.347 -171.859C768.415 -172.068 767.445 -172.044 766.524 -171.789C765.603 -171.534 764.759 -171.056 764.069 -170.397L650.05 -56.7055C649.286 -55.9488 648.749 -54.9949 648.499 -53.9509C648.25 -52.9069 648.298 -51.8142 648.637 -50.7958L679.155 39.4916C679.534 40.6332 680.268 41.6253 681.25 42.325C682.231 43.0246 683.411 43.3957 684.619 43.3845Z" fill="#EDEDED"/>
<path d="M144.691 56.0002H-13.2209C-14.1534 55.9973 -15.0728 56.2186 -15.9011 56.6453C-16.7294 57.072 -17.4422 57.6916 -17.9785 58.4513C-18.5148 59.2111 -18.8588 60.0885 -18.9817 61.0091C-19.1046 61.9297 -19.0026 62.8663 -18.6842 63.7392L55.8214 267.671C56.162 268.561 56.7183 269.353 57.4408 269.976C58.1634 270.599 59.0298 271.035 59.9624 271.244C60.895 271.453 61.865 271.429 62.786 271.174C63.707 270.919 64.5501 270.441 65.2405 269.782L179.259 156.09C180.024 155.334 180.561 154.38 180.81 153.336C181.06 152.292 181.012 151.199 180.672 150.181L150.154 59.8932C149.775 58.7516 149.042 57.7595 148.06 57.0598C147.078 56.3601 145.898 55.9891 144.691 56.0002Z" fill="#EDEDED"/>
</g>
</g>
<defs>
<clipPath id="clip0_5465_24148">
<rect width="829" height="96" fill="white"/>
</clipPath>
<clipPath id="clip1_5465_24148">
<rect width="829" height="96" fill="white"/>
</clipPath>
</defs>
</svg>
