<svg width="752" height="150" viewBox="0 0 752 150" fill="none" xmlns="http://www.w3.org/2000/svg">
<g clip-path="url(#clip0_6837_92935)">
<rect width="752" height="150" fill="white"/>
<g clip-path="url(#clip1_6837_92935)">
<rect width="752" height="214" fill="#F6F9FE"/>
<g filter="url(#filter0_ii_6837_92935)">
<path d="M103.458 65.7708H235.542C236.322 65.7733 237.091 65.5882 237.783 65.2312C238.476 64.8743 239.072 64.3561 239.521 63.7206C239.97 63.0851 240.257 62.3512 240.36 61.5812C240.463 60.8111 240.378 60.0278 240.111 59.2977L177.792 -111.279C177.507 -112.023 177.042 -112.685 176.437 -113.206C175.833 -113.728 175.108 -114.092 174.328 -114.267C173.548 -114.442 172.737 -114.421 171.967 -114.208C171.196 -113.995 170.491 -113.595 169.914 -113.044L74.5439 -17.9482C73.9048 -17.3152 73.4556 -16.5173 73.2468 -15.6441C73.038 -14.7709 73.078 -13.8569 73.3622 -13.0051L98.8885 62.5146C99.2056 63.4695 99.8191 64.2993 100.64 64.8845C101.462 65.4698 102.448 65.7801 103.458 65.7708Z" fill="#F6F9FE"/>
</g>
<g filter="url(#filter1_ii_6837_92935)">
<path d="M404.101 65.7708H536.184C536.964 65.7733 537.733 65.5882 538.426 65.2312C539.118 64.8743 539.715 64.3561 540.163 63.7206C540.612 63.0851 540.9 62.3512 541.002 61.5812C541.105 60.8111 541.02 60.0278 540.754 59.2977L478.434 -111.279C478.149 -112.023 477.684 -112.685 477.08 -113.206C476.475 -113.728 475.751 -114.092 474.971 -114.267C474.191 -114.442 473.379 -114.421 472.609 -114.208C471.839 -113.995 471.133 -113.595 470.556 -113.044L375.186 -17.9482C374.547 -17.3152 374.098 -16.5173 373.889 -15.6441C373.68 -14.7709 373.72 -13.8569 374.005 -13.0051L399.531 62.5146C399.848 63.4695 400.461 64.2993 401.283 64.8845C402.104 65.4698 403.091 65.7801 404.101 65.7708Z" fill="#F6F9FE"/>
</g>
<g filter="url(#filter2_ii_6837_92935)">
<path d="M704.743 65.7708H836.826C837.606 65.7733 838.375 65.5882 839.068 65.2312C839.761 64.8743 840.357 64.3561 840.806 63.7206C841.254 63.0851 841.542 62.3512 841.645 61.5812C841.748 60.8111 841.662 60.0278 841.396 59.2977L779.077 -111.279C778.792 -112.023 778.326 -112.685 777.722 -113.206C777.118 -113.728 776.393 -114.092 775.613 -114.267C774.833 -114.442 774.022 -114.421 773.251 -114.208C772.481 -113.995 771.776 -113.595 771.198 -113.044L675.829 -17.9482C675.189 -17.3152 674.74 -16.5173 674.531 -15.6441C674.323 -14.7709 674.363 -13.8569 674.647 -13.0051L700.173 62.5146C700.49 63.4695 701.104 64.2993 701.925 64.8845C702.746 65.4698 703.733 65.7801 704.743 65.7708Z" fill="#F6F9FE"/>
</g>
<g filter="url(#filter3_ii_6837_92935)">
<path d="M63.2571 89.7183H-68.8262C-69.6062 89.7159 -70.3752 89.901 -71.068 90.2579C-71.7608 90.6148 -72.357 91.133 -72.8056 91.7685C-73.2542 92.404 -73.542 93.1379 -73.6447 93.908C-73.7475 94.678 -73.6622 95.4614 -73.3959 96.1915L-11.0767 266.768C-10.7918 267.512 -10.3265 268.174 -9.72214 268.695C-9.1178 269.217 -8.39313 269.581 -7.61305 269.756C-6.83298 269.931 -6.02161 269.911 -5.25127 269.697C-4.48094 269.484 -3.77567 269.084 -3.19821 268.533L92.1714 173.437C92.8105 172.804 93.2598 172.006 93.4685 171.133C93.6773 170.26 93.6373 169.346 93.3531 168.494L67.8268 92.9745C67.5097 92.0197 66.8963 91.1898 66.075 90.6046C65.2537 90.0194 64.2669 89.709 63.2571 89.7183Z" fill="#F6F9FE"/>
</g>
<g filter="url(#filter4_ii_6837_92935)">
<path d="M371.899 89.7183H239.816C239.036 89.7159 238.267 89.901 237.574 90.2579C236.882 90.6148 236.285 91.133 235.837 91.7685C235.388 92.404 235.1 93.1379 234.998 93.908C234.895 94.678 234.98 95.4614 235.246 96.1915L297.566 266.768C297.851 267.512 298.316 268.174 298.92 268.695C299.525 269.217 300.249 269.581 301.029 269.756C301.809 269.931 302.621 269.911 303.391 269.697C304.161 269.484 304.867 269.084 305.444 268.533L400.814 173.437C401.453 172.804 401.902 172.006 402.111 171.133C402.32 170.26 402.28 169.346 401.995 168.494L376.469 92.9745C376.152 92.0197 375.539 91.1898 374.717 90.6046C373.896 90.0194 372.909 89.709 371.899 89.7183Z" fill="#F6F9FE"/>
</g>
<g filter="url(#filter5_ii_6837_92935)">
<path d="M704.542 89.7183H572.458C571.678 89.7159 570.909 89.901 570.217 90.2579C569.524 90.6148 568.928 91.133 568.479 91.7685C568.03 92.404 567.743 93.1379 567.64 93.908C567.537 94.678 567.622 95.4614 567.889 96.1915L630.208 266.768C630.493 267.512 630.958 268.174 631.563 268.695C632.167 269.217 632.892 269.581 633.672 269.756C634.452 269.931 635.263 269.911 636.033 269.697C636.804 269.484 637.509 269.084 638.086 268.533L733.456 173.437C734.095 172.804 734.544 172.006 734.753 171.133C734.962 170.26 734.922 169.346 734.638 168.494L709.111 92.9745C708.794 92.0197 708.181 91.1898 707.36 90.6046C706.538 90.0194 705.552 89.709 704.542 89.7183Z" fill="#F6F9FE"/>
</g>
</g>
</g>
<defs>
<filter id="filter0_ii_6837_92935" x="71.115" y="-114.385" width="176.287" height="186.156" filterUnits="userSpaceOnUse" color-interpolation-filters="sRGB">
<feFlood flood-opacity="0" result="BackgroundImageFix"/>
<feBlend mode="normal" in="SourceGraphic" in2="BackgroundImageFix" result="shape"/>
<feColorMatrix in="SourceAlpha" type="matrix" values="0 0 0 0 0 0 0 0 0 0 0 0 0 0 0 0 0 0 127 0" result="hardAlpha"/>
<feOffset dx="-5" dy="2"/>
<feGaussianBlur stdDeviation="1"/>
<feComposite in2="hardAlpha" operator="arithmetic" k2="-1" k3="1"/>
<feColorMatrix type="matrix" values="0 0 0 0 0.0235294 0 0 0 0 0.0627451 0 0 0 0 0.117647 0 0 0 0.02 0"/>
<feBlend mode="normal" in2="shape" result="effect1_innerShadow_6837_92935"/>
<feColorMatrix in="SourceAlpha" type="matrix" values="0 0 0 0 0 0 0 0 0 0 0 0 0 0 0 0 0 0 127 0" result="hardAlpha"/>
<feOffset dx="7" dy="6"/>
<feGaussianBlur stdDeviation="6"/>
<feComposite in2="hardAlpha" operator="arithmetic" k2="-1" k3="1"/>
<feColorMatrix type="matrix" values="0 0 0 0 0.0230851 0 0 0 0 0.0610638 0 0 0 0 0.116915 0 0 0 0.05 0"/>
<feBlend mode="normal" in2="effect1_innerShadow_6837_92935" result="effect2_innerShadow_6837_92935"/>
</filter>
<filter id="filter1_ii_6837_92935" x="371.757" y="-114.385" width="176.287" height="186.156" filterUnits="userSpaceOnUse" color-interpolation-filters="sRGB">
<feFlood flood-opacity="0" result="BackgroundImageFix"/>
<feBlend mode="normal" in="SourceGraphic" in2="BackgroundImageFix" result="shape"/>
<feColorMatrix in="SourceAlpha" type="matrix" values="0 0 0 0 0 0 0 0 0 0 0 0 0 0 0 0 0 0 127 0" result="hardAlpha"/>
<feOffset dx="-5" dy="2"/>
<feGaussianBlur stdDeviation="1"/>
<feComposite in2="hardAlpha" operator="arithmetic" k2="-1" k3="1"/>
<feColorMatrix type="matrix" values="0 0 0 0 0.0235294 0 0 0 0 0.0627451 0 0 0 0 0.117647 0 0 0 0.02 0"/>
<feBlend mode="normal" in2="shape" result="effect1_innerShadow_6837_92935"/>
<feColorMatrix in="SourceAlpha" type="matrix" values="0 0 0 0 0 0 0 0 0 0 0 0 0 0 0 0 0 0 127 0" result="hardAlpha"/>
<feOffset dx="7" dy="6"/>
<feGaussianBlur stdDeviation="6"/>
<feComposite in2="hardAlpha" operator="arithmetic" k2="-1" k3="1"/>
<feColorMatrix type="matrix" values="0 0 0 0 0.0230851 0 0 0 0 0.0610638 0 0 0 0 0.116915 0 0 0 0.05 0"/>
<feBlend mode="normal" in2="effect1_innerShadow_6837_92935" result="effect2_innerShadow_6837_92935"/>
</filter>
<filter id="filter2_ii_6837_92935" x="672.4" y="-114.385" width="176.287" height="186.156" filterUnits="userSpaceOnUse" color-interpolation-filters="sRGB">
<feFlood flood-opacity="0" result="BackgroundImageFix"/>
<feBlend mode="normal" in="SourceGraphic" in2="BackgroundImageFix" result="shape"/>
<feColorMatrix in="SourceAlpha" type="matrix" values="0 0 0 0 0 0 0 0 0 0 0 0 0 0 0 0 0 0 127 0" result="hardAlpha"/>
<feOffset dx="-5" dy="2"/>
<feGaussianBlur stdDeviation="1"/>
<feComposite in2="hardAlpha" operator="arithmetic" k2="-1" k3="1"/>
<feColorMatrix type="matrix" values="0 0 0 0 0.0235294 0 0 0 0 0.0627451 0 0 0 0 0.117647 0 0 0 0.02 0"/>
<feBlend mode="normal" in2="shape" result="effect1_innerShadow_6837_92935"/>
<feColorMatrix in="SourceAlpha" type="matrix" values="0 0 0 0 0 0 0 0 0 0 0 0 0 0 0 0 0 0 127 0" result="hardAlpha"/>
<feOffset dx="7" dy="6"/>
<feGaussianBlur stdDeviation="6"/>
<feComposite in2="hardAlpha" operator="arithmetic" k2="-1" k3="1"/>
<feColorMatrix type="matrix" values="0 0 0 0 0.0230851 0 0 0 0 0.0610638 0 0 0 0 0.116915 0 0 0 0.05 0"/>
<feBlend mode="normal" in2="effect1_innerShadow_6837_92935" result="effect2_innerShadow_6837_92935"/>
</filter>
<filter id="filter3_ii_6837_92935" x="-75.687" y="89.7181" width="176.287" height="186.156" filterUnits="userSpaceOnUse" color-interpolation-filters="sRGB">
<feFlood flood-opacity="0" result="BackgroundImageFix"/>
<feBlend mode="normal" in="SourceGraphic" in2="BackgroundImageFix" result="shape"/>
<feColorMatrix in="SourceAlpha" type="matrix" values="0 0 0 0 0 0 0 0 0 0 0 0 0 0 0 0 0 0 127 0" result="hardAlpha"/>
<feOffset dx="-5" dy="2"/>
<feGaussianBlur stdDeviation="1"/>
<feComposite in2="hardAlpha" operator="arithmetic" k2="-1" k3="1"/>
<feColorMatrix type="matrix" values="0 0 0 0 0.0235294 0 0 0 0 0.0627451 0 0 0 0 0.117647 0 0 0 0.02 0"/>
<feBlend mode="normal" in2="shape" result="effect1_innerShadow_6837_92935"/>
<feColorMatrix in="SourceAlpha" type="matrix" values="0 0 0 0 0 0 0 0 0 0 0 0 0 0 0 0 0 0 127 0" result="hardAlpha"/>
<feOffset dx="7" dy="6"/>
<feGaussianBlur stdDeviation="6"/>
<feComposite in2="hardAlpha" operator="arithmetic" k2="-1" k3="1"/>
<feColorMatrix type="matrix" values="0 0 0 0 0.0230851 0 0 0 0 0.0610638 0 0 0 0 0.116915 0 0 0 0.05 0"/>
<feBlend mode="normal" in2="effect1_innerShadow_6837_92935" result="effect2_innerShadow_6837_92935"/>
</filter>
<filter id="filter4_ii_6837_92935" x="232.955" y="89.7181" width="176.287" height="186.156" filterUnits="userSpaceOnUse" color-interpolation-filters="sRGB">
<feFlood flood-opacity="0" result="BackgroundImageFix"/>
<feBlend mode="normal" in="SourceGraphic" in2="BackgroundImageFix" result="shape"/>
<feColorMatrix in="SourceAlpha" type="matrix" values="0 0 0 0 0 0 0 0 0 0 0 0 0 0 0 0 0 0 127 0" result="hardAlpha"/>
<feOffset dx="-5" dy="2"/>
<feGaussianBlur stdDeviation="1"/>
<feComposite in2="hardAlpha" operator="arithmetic" k2="-1" k3="1"/>
<feColorMatrix type="matrix" values="0 0 0 0 0.0235294 0 0 0 0 0.0627451 0 0 0 0 0.117647 0 0 0 0.02 0"/>
<feBlend mode="normal" in2="shape" result="effect1_innerShadow_6837_92935"/>
<feColorMatrix in="SourceAlpha" type="matrix" values="0 0 0 0 0 0 0 0 0 0 0 0 0 0 0 0 0 0 127 0" result="hardAlpha"/>
<feOffset dx="7" dy="6"/>
<feGaussianBlur stdDeviation="6"/>
<feComposite in2="hardAlpha" operator="arithmetic" k2="-1" k3="1"/>
<feColorMatrix type="matrix" values="0 0 0 0 0.0230851 0 0 0 0 0.0610638 0 0 0 0 0.116915 0 0 0 0.05 0"/>
<feBlend mode="normal" in2="effect1_innerShadow_6837_92935" result="effect2_innerShadow_6837_92935"/>
</filter>
<filter id="filter5_ii_6837_92935" x="565.598" y="89.7181" width="176.287" height="186.156" filterUnits="userSpaceOnUse" color-interpolation-filters="sRGB">
<feFlood flood-opacity="0" result="BackgroundImageFix"/>
<feBlend mode="normal" in="SourceGraphic" in2="BackgroundImageFix" result="shape"/>
<feColorMatrix in="SourceAlpha" type="matrix" values="0 0 0 0 0 0 0 0 0 0 0 0 0 0 0 0 0 0 127 0" result="hardAlpha"/>
<feOffset dx="-5" dy="2"/>
<feGaussianBlur stdDeviation="1"/>
<feComposite in2="hardAlpha" operator="arithmetic" k2="-1" k3="1"/>
<feColorMatrix type="matrix" values="0 0 0 0 0.0235294 0 0 0 0 0.0627451 0 0 0 0 0.117647 0 0 0 0.02 0"/>
<feBlend mode="normal" in2="shape" result="effect1_innerShadow_6837_92935"/>
<feColorMatrix in="SourceAlpha" type="matrix" values="0 0 0 0 0 0 0 0 0 0 0 0 0 0 0 0 0 0 127 0" result="hardAlpha"/>
<feOffset dx="7" dy="6"/>
<feGaussianBlur stdDeviation="6"/>
<feComposite in2="hardAlpha" operator="arithmetic" k2="-1" k3="1"/>
<feColorMatrix type="matrix" values="0 0 0 0 0.0230851 0 0 0 0 0.0610638 0 0 0 0 0.116915 0 0 0 0.05 0"/>
<feBlend mode="normal" in2="effect1_innerShadow_6837_92935" result="effect2_innerShadow_6837_92935"/>
</filter>
<clipPath id="clip0_6837_92935">
<rect width="752" height="150" fill="white"/>
</clipPath>
<clipPath id="clip1_6837_92935">
<rect width="752" height="214" fill="white"/>
</clipPath>
</defs>
</svg>
