<svg width="91" height="24" viewBox="0 0 91 24" fill="none" xmlns="http://www.w3.org/2000/svg">
<g clip-path="url(#clip0_4180_1113)">
<path d="M86.4279 6.51819L82.0247 19.4186C82.0144 19.4488 81.9949 19.4751 81.969 19.4937C81.943 19.5124 81.9119 19.5224 81.88 19.5225C81.8401 19.5314 81.7983 19.5258 81.762 19.5068C81.7258 19.4878 81.6975 19.4565 81.6821 19.4186L79.1589 11.9554C79.1502 11.9318 79.1358 11.9106 79.117 11.8939C79.0981 11.8772 79.0754 11.8655 79.0509 11.8597C79.0264 11.8539 79.0008 11.8544 78.9765 11.8609C78.9522 11.8675 78.9298 11.88 78.9115 11.8973L75.9629 14.8422C75.9423 14.8627 75.928 14.8885 75.9217 14.9168C75.9153 14.9451 75.9172 14.9745 75.927 15.0018L79.0055 23.4594C79.0164 23.4888 79.0359 23.5141 79.0616 23.532C79.0872 23.5499 79.1177 23.5595 79.149 23.5596H84.4242C84.4555 23.5595 84.486 23.5499 84.5116 23.532C84.5373 23.5141 84.5568 23.4888 84.5677 23.4594L90.6889 6.61961C90.6972 6.59669 90.6999 6.5721 90.6968 6.54792C90.6936 6.52374 90.6847 6.50068 90.6707 6.48067C90.6568 6.46066 90.6382 6.4443 90.6166 6.43297C90.5951 6.42163 90.5711 6.41565 90.5467 6.41553H86.5714C86.5398 6.41561 86.509 6.42554 86.4833 6.44394C86.4576 6.46233 86.4382 6.48829 86.4279 6.51819Z" fill="#2F7BEB"/>
<path d="M77.17 6.41553H73.0229C72.9984 6.41546 72.9742 6.42129 72.9525 6.43254C72.9307 6.4438 72.912 6.46014 72.8979 6.48017C72.8838 6.50021 72.8748 6.52335 72.8716 6.54762C72.8683 6.5719 72.871 6.5966 72.8794 6.61962L74.8361 11.9975C74.845 12.0209 74.8596 12.0418 74.8786 12.0582C74.8976 12.0747 74.9204 12.0862 74.9448 12.0917C74.9693 12.0972 74.9948 12.0966 75.019 12.0898C75.0432 12.0831 75.0653 12.0705 75.0835 12.0531L78.0779 9.05499C78.098 9.03503 78.1121 9.00988 78.1186 8.98235C78.1252 8.95482 78.1239 8.926 78.115 8.89915L77.3135 6.51819C77.3036 6.48809 77.2843 6.46193 77.2585 6.44348C77.2327 6.42502 77.2017 6.41524 77.17 6.41553Z" fill="#FF803F"/>
<path d="M6.99938 0V16.3265C6.99938 17.4051 6.75201 18.1818 6.27706 18.6667C5.8021 19.1515 5.01422 19.3902 3.93568 19.3902H0V23.5646H4.54174C6.94455 23.5646 8.68893 23.0146 9.77489 21.9147C10.8609 20.8147 11.4055 19.0757 11.4088 16.6976V0H6.99938Z" fill="#2F7BEB"/>
<path d="M30.1918 10.4155C26.9945 4.64189 17.3668 4.64065 14.172 10.4155C13.387 11.7711 12.9932 13.3135 12.9908 15.0426C12.9067 20.2374 17.0229 24.094 22.1794 23.9975C27.3359 24.094 31.4558 20.2449 31.368 15.0426C31.368 13.316 30.9759 11.7736 30.1918 10.4155ZM25.6661 18.7445C24.7995 19.6664 23.6372 20.1261 22.1794 20.1236C19.2344 20.1509 17.3556 17.9925 17.4039 15.0426C17.3594 12.1286 19.2493 9.92946 22.1794 9.96162C25.1132 9.92946 27.0031 12.1286 26.9598 15.0426C26.9636 16.5912 26.5257 17.8256 25.6661 18.7445Z" fill="#2F7BEB"/>
<path d="M50.1472 10.4156C46.9524 4.63944 37.3235 4.64439 34.1274 10.4156C33.3416 11.7712 32.9495 13.3135 32.9512 15.0427C32.8609 20.2375 36.9821 24.0928 42.1398 23.9975C47.295 24.0928 51.4162 20.2412 51.3272 15.0427C51.3288 13.316 50.9355 11.7736 50.1472 10.4156ZM45.6215 18.7446C44.7582 19.6656 43.5976 20.1253 42.1398 20.1237C39.1924 20.1509 37.316 17.9926 37.3593 15.0427C37.3185 12.1286 39.2084 9.92948 42.1398 9.96164C45.0699 9.92948 46.9635 12.1286 46.919 15.0427C46.919 16.5912 46.4865 17.8252 45.6215 18.7446Z" fill="#2F7BEB"/>
<path d="M67.0773 6.52689V7.36671C65.6116 6.50091 63.9703 6.09275 62.0989 6.09028C56.9425 5.9938 52.8225 9.84167 52.9115 15.0427C52.82 20.2375 56.9425 24.0915 62.0989 23.9975C63.9703 23.9975 65.6116 23.5782 67.0773 22.7186V23.5584H71.2826V6.52689H67.0773ZM65.5807 18.7433C64.7173 19.666 63.5568 20.1266 62.0989 20.1249C59.1527 20.1509 57.2752 17.9926 57.3197 15.0427C57.2776 12.1286 59.1663 9.92948 62.0989 9.96288C65.029 9.92948 66.9227 12.1299 66.8794 15.0427C66.8794 16.5904 66.4465 17.8239 65.5807 18.7433Z" fill="#2F7BEB"/>
</g>
<defs>
<clipPath id="clip0_4180_1113">
<rect width="90.6988" height="24" fill="white"/>
</clipPath>
</defs>
</svg>
