<svg width="38" height="41" viewBox="0 0 38 41" fill="none" xmlns="http://www.w3.org/2000/svg">
<path d="M31.0011 4.60672e-05H1.10038C0.923802 -0.00051599 0.749713 0.0413862 0.592882 0.122188C0.436051 0.20299 0.301078 0.320303 0.199525 0.46416C0.0979722 0.608018 0.0328331 0.774165 0.00956846 0.948483C-0.0136962 1.1228 0.00560742 1.30014 0.0659023 1.46542L14.1736 40.0801C14.2381 40.2486 14.3434 40.3985 14.4802 40.5165C14.617 40.6345 14.7811 40.717 14.9577 40.7566C15.1343 40.7962 15.3179 40.7916 15.4923 40.7433C15.6667 40.695 15.8264 40.6045 15.9571 40.4798L37.5467 18.9522C37.6914 18.8089 37.793 18.6283 37.8403 18.4306C37.8876 18.2329 37.8785 18.026 37.8142 17.8332L32.0356 0.737173C31.9638 0.521019 31.8249 0.333155 31.639 0.200674C31.4531 0.0681929 31.2297 -0.00206146 31.0011 4.60672e-05Z" fill="#FF803F"/>
</svg>
